<svg width="32" height="32" viewBox="0 0 32 32" fill="none" xmlns="http://www.w3.org/2000/svg">
<g clip-path="url(#clip0_357_4686)">
<path d="M31.4492 26.4826H0.552726C0.248039 26.4826 0.000976562 26.2356 0.000976562 25.9309V6.06884C0.000976562 5.76415 0.248039 5.51709 0.552726 5.51709H31.4492C31.7539 5.51709 32.001 5.76415 32.001 6.06884V25.9309C32.0009 26.2356 31.7539 26.4826 31.4492 26.4826Z" fill="#73AF00"/>
<path d="M6.62043 12.6424C6.67481 12.991 6.88549 13.1004 7.06868 13.0861C7.28468 13.0693 7.47412 12.8718 7.47412 12.6632V11.4671C7.47412 11.4072 7.52287 11.3583 7.58287 11.3583C7.64287 11.3583 7.69162 11.4071 7.69162 11.4671V12.6683C7.69162 12.8128 7.76299 12.9474 7.88268 13.0283C7.95574 13.0778 8.0408 13.1033 8.12649 13.1033C8.18105 13.1033 8.23587 13.0928 8.28812 13.072L8.3968 13.0286C8.4068 14.0326 8.34574 14.9151 8.34462 14.9312C8.33612 15.0511 8.42624 15.1551 8.54605 15.1636C8.55137 15.1641 8.55655 15.1642 8.5618 15.1642C8.67493 15.1642 8.77036 15.0767 8.77855 14.9622C8.78361 14.8916 8.85061 13.9251 8.83055 12.8551L8.8963 12.8288C8.95393 12.8059 9.01868 12.8086 9.07411 12.8363C9.31368 12.9556 9.60193 12.9091 9.79124 12.7198L9.83043 12.6807C10.0062 12.5046 10.0666 12.2489 9.98793 12.0129L9.80274 11.4574C9.90286 11.4875 10.0129 11.4432 10.0612 11.3468C10.115 11.2393 10.0714 11.1087 9.96399 11.0549L9.52905 10.8374C9.45036 10.7979 9.35593 10.8101 9.28924 10.8676C9.22274 10.9254 9.19761 11.0173 9.22543 11.1008L9.57536 12.1506C9.60155 12.2292 9.58143 12.3146 9.52286 12.3732L9.48374 12.4123C9.42705 12.469 9.34068 12.4828 9.26849 12.4471C9.12755 12.3767 8.96705 12.3635 8.81649 12.4019C8.78593 11.7038 8.71074 11.0087 8.55062 10.5281C8.51268 10.4143 8.38974 10.3525 8.27543 10.3907C8.16149 10.4285 8.09993 10.5516 8.13793 10.6658C8.29462 11.1357 8.36287 11.8519 8.38712 12.564L8.12674 12.6681V11.4669C8.12674 11.167 7.8828 10.9231 7.58299 10.9231C7.28318 10.9231 7.03924 11.1669 7.03924 11.4669V12.5197L6.81737 11.4238C6.79374 11.3059 6.67912 11.229 6.56112 11.2536C6.44331 11.2776 6.36718 11.3923 6.39112 11.51L6.62043 12.6424Z" fill="#F5F5F5"/>
<path d="M7.03977 10.8146C7.15989 10.8146 7.25726 10.7174 7.25726 10.5971V10.3796C7.25726 10.2594 7.15989 10.1621 7.03977 10.1621C6.91964 10.1621 6.82227 10.2594 6.82227 10.3796V10.5971C6.82227 10.7173 6.91964 10.8146 7.03977 10.8146Z" fill="#F5F5F5"/>
<path d="M9.21457 10.5971H9.43207C9.55219 10.5971 9.64957 10.4999 9.64957 10.3796C9.64957 10.2594 9.55219 10.1621 9.43207 10.1621H9.21457C9.09444 10.1621 8.99707 10.2594 8.99707 10.3796C8.99707 10.4999 9.09444 10.5971 9.21457 10.5971Z" fill="#F5F5F5"/>
<path d="M7.79755 13.4554L6.71011 14.1079C6.60705 14.1697 6.57374 14.3032 6.63555 14.4063C6.6763 14.4742 6.7483 14.5119 6.82224 14.5119C6.86036 14.5119 6.89892 14.5019 6.93399 14.4808L8.02142 13.8283C8.12448 13.7665 8.1578 13.6329 8.09598 13.5299C8.03417 13.4269 7.90067 13.3936 7.79755 13.4554Z" fill="#F5F5F5"/>
<path d="M10.7295 13.84L10.7347 13.8365C10.7529 13.91 10.7842 13.9811 10.835 14.0409C10.9234 14.145 11.0559 14.1973 11.2057 14.1849C11.4181 14.1694 11.5625 14.0723 11.6581 13.947C11.6727 13.957 11.688 13.9661 11.704 13.9742C11.8215 14.0335 11.9575 14.029 12.0869 13.9618C12.4156 13.7926 12.4864 13.401 12.4764 13.1962C12.4705 13.0768 12.369 12.9926 12.25 12.9902C12.1305 12.9953 12.0375 13.0966 12.0418 13.216C12.042 13.2188 12.0468 13.4768 11.889 13.5726C11.8633 13.5368 11.8328 13.456 11.8213 13.3893C11.8029 13.2774 11.7001 13.1995 11.5895 13.2084C11.4767 13.2173 11.3896 13.312 11.3892 13.4252C11.3891 13.4568 11.3821 13.7359 11.1667 13.7593C11.1416 13.7251 11.1412 13.5811 11.1658 13.4746C11.1867 13.3873 11.1517 13.2962 11.0778 13.2453C11.0038 13.1941 10.9062 13.1941 10.8319 13.2445L10.7105 13.327C10.6529 12.0658 10.5201 10.5961 10.5185 10.5773C10.5077 10.4579 10.4025 10.3689 10.2822 10.3804C10.1626 10.3912 10.0744 10.497 10.0853 10.6168C10.0872 10.637 10.2407 12.3374 10.2881 13.636C10.277 13.6465 10.2655 13.6581 10.2547 13.6682C10.1687 13.4514 9.99816 13.3148 9.7786 13.294C9.46872 13.2666 9.13297 13.4775 9.0126 13.7787C8.90885 14.0378 8.97416 14.2925 9.17885 14.4273C9.32604 14.5244 9.54816 14.5549 9.82747 14.4571C9.75929 14.6966 9.6351 14.9396 9.47372 15.1276C9.32916 15.296 9.08779 15.4903 8.77891 15.4816C8.5991 15.4746 8.46098 15.4158 8.35654 15.3015C8.10473 15.0264 8.12641 14.5286 8.1266 14.5233C8.13285 14.4035 8.0411 14.3014 7.92141 14.2948C7.80085 14.282 7.69885 14.38 7.69223 14.5C7.69073 14.5275 7.65916 15.1818 8.03373 15.5931C8.2181 15.7959 8.46304 15.9045 8.76179 15.9162C8.77635 15.9168 8.79091 15.917 8.80554 15.917C9.16935 15.917 9.52235 15.7386 9.80354 15.4109C10.068 15.1029 10.2477 14.6845 10.3015 14.2961C10.3008 15.0401 9.85247 15.8793 9.25804 16.2489C9.0056 16.4057 8.61204 16.5471 8.16873 16.3286C7.62223 16.0588 7.68735 15.4342 7.69023 15.4087C7.70516 15.2895 7.6206 15.1808 7.50141 15.1659C7.38279 15.1515 7.27342 15.2354 7.25867 15.3548C7.25379 15.3936 7.14929 16.3105 7.97629 16.7185C8.18873 16.8234 8.41085 16.8754 8.63472 16.8754C8.92229 16.8754 9.21254 16.7894 9.48766 16.6183C10.2114 16.1684 10.7367 15.191 10.7367 14.2943C10.7367 14.1541 10.734 14.001 10.7295 13.84ZM9.4181 14.0641C9.37922 14.0384 9.4096 13.9563 9.41616 13.9399C9.46197 13.8252 9.60522 13.726 9.71966 13.726C9.72554 13.726 9.73147 13.7262 9.73716 13.7268C9.76497 13.7294 9.83879 13.7364 9.87054 13.9006C9.87391 13.918 9.87679 13.9358 9.87904 13.9541C9.63666 14.0965 9.47416 14.101 9.4181 14.0641Z" fill="#F5F5F5"/>
<path d="M7.14938 16.0646C7.04632 16.004 6.91319 16.0386 6.85207 16.1417C6.84207 16.1584 6.82882 16.1767 6.81532 16.1932C6.81294 16.1877 6.81063 16.1818 6.80826 16.1754C6.71757 15.9334 6.78213 15.5607 6.81476 15.4375C6.84544 15.3216 6.77638 15.2026 6.66051 15.1716C6.54476 15.1418 6.42569 15.2094 6.39457 15.3254C6.37876 15.3842 6.24507 15.9122 6.40094 16.3281C6.50076 16.594 6.65401 16.6611 6.76507 16.6702C6.77494 16.671 6.78469 16.6714 6.79438 16.6714C7.02851 16.6714 7.18432 16.4355 7.22763 16.3607C7.28769 16.2572 7.25251 16.1253 7.14938 16.0646Z" fill="#F5F5F5"/>
<path d="M11.163 12.1194C11.21 12.1194 11.2574 12.1043 11.2972 12.0729L12.3937 11.2121C12.4088 11.2002 12.4185 11.1847 12.4295 11.17C12.5875 11.0748 12.6943 10.9033 12.6943 10.7059C12.6943 10.406 12.4503 10.1621 12.1505 10.1621C11.8507 10.1621 11.6068 10.4059 11.6068 10.7059C11.6068 10.8737 11.6848 11.022 11.8045 11.1218L11.0285 11.731C10.934 11.8052 10.9176 11.9419 10.9917 12.0362C11.0347 12.0909 11.0985 12.1194 11.163 12.1194ZM12.1506 10.597C12.2106 10.597 12.2593 10.6459 12.2593 10.7058C12.2593 10.7657 12.2106 10.8145 12.1506 10.8145C12.0906 10.8145 12.0418 10.7657 12.0418 10.7058C12.0418 10.6459 12.0906 10.597 12.1506 10.597Z" fill="#F5F5F5"/>
<path d="M11.8929 11.9132C11.7784 11.875 11.6557 11.9367 11.6177 12.0506C11.5945 12.1202 11.4893 12.479 11.7025 12.692C11.7852 12.7748 11.8939 12.8162 12.0274 12.816C12.1166 12.816 12.2169 12.7977 12.3279 12.7605C12.4418 12.7227 12.5034 12.5996 12.4654 12.4855C12.4274 12.3716 12.3044 12.3096 12.1902 12.348C12.0687 12.3884 12.0173 12.3818 12.0126 12.386C11.9998 12.3538 12.0082 12.2567 12.0306 12.1872C12.0682 12.0737 12.0066 11.951 11.8929 11.9132Z" fill="#F5F5F5"/>
<path d="M14.3822 11.0141C14.4026 11.02 14.4231 11.0228 14.4432 11.0228C14.5374 11.0228 14.6242 10.9612 14.6519 10.8662L14.7788 10.4313C14.8124 10.3159 14.7462 10.1951 14.631 10.1615C14.5154 10.1281 14.3949 10.194 14.3612 10.3093L14.2344 10.7443C14.2007 10.8598 14.2669 10.9806 14.3822 11.0141Z" fill="#F5F5F5"/>
<path d="M13.1144 10.9887C13.1489 11.0089 13.1867 11.0185 13.2239 11.0185C13.2987 11.0185 13.3714 10.9801 13.4119 10.9109C13.4725 10.8072 13.4376 10.6738 13.3339 10.6133C13.2902 10.5878 13.2961 10.5158 13.2977 10.5016C13.3042 10.4444 13.3383 10.3747 13.3975 10.3563C13.5122 10.3207 13.5763 10.1987 13.5406 10.0841C13.5047 9.96918 13.383 9.90562 13.2682 9.94087C13.0514 10.0084 12.8933 10.2091 12.8655 10.4521C12.8397 10.6782 12.9351 10.8839 13.1144 10.9887Z" fill="#F5F5F5"/>
<path d="M11.3894 14.5117C11.2692 14.5117 11.1719 14.609 11.1719 14.7292C11.1719 14.8354 11.2479 14.9238 11.3486 14.9428C11.36 14.9596 11.3893 15.0172 11.3893 15.1642C11.3893 15.2843 11.4867 15.3817 11.6068 15.3817C11.7269 15.3817 11.8243 15.2844 11.8243 15.1642C11.8244 14.5192 11.4071 14.5117 11.3894 14.5117Z" fill="#F5F5F5"/>
<path d="M15.0788 13.6112C15.1061 13.6157 15.1333 13.6178 15.1606 13.6178C15.3315 13.6178 15.5041 13.5316 15.6751 13.3606C15.76 13.2757 15.76 13.138 15.6751 13.0531C15.5902 12.9682 15.4525 12.9682 15.3676 13.0531C15.2375 13.1833 15.1675 13.186 15.1496 13.182C15.1081 13.176 15.0705 13.1218 15.0621 13.107C15.0075 13.0012 14.8782 12.959 14.7717 13.0123C14.6642 13.066 14.6206 13.1967 14.6744 13.3041C14.6879 13.3311 14.8134 13.5681 15.0788 13.6112Z" fill="#F5F5F5"/>
<path d="M18.7757 12.0827C18.7744 12.0794 18.773 12.0762 18.772 12.0732C18.7334 11.9602 18.6102 11.8988 18.4975 11.9372C18.3834 11.9751 18.3219 12.0982 18.3599 12.2123C18.3768 12.2632 18.4737 12.519 18.7137 12.5512C18.7298 12.5534 18.7457 12.5544 18.7615 12.5544C18.9122 12.5544 19.0535 12.4569 19.1822 12.2641C19.2487 12.1642 19.2217 12.0292 19.1218 11.9625C19.0217 11.896 18.8867 11.9227 18.8202 12.0229C18.803 12.0486 18.7882 12.0681 18.7757 12.0827Z" fill="#F5F5F5"/>
<path d="M18.3488 16.0345C18.3488 15.107 18.3081 14.237 18.2514 13.4746C18.5602 14.0102 18.8381 14.5514 19.0151 15.0235C19.0479 15.1108 19.1307 15.1645 19.2187 15.1645C19.2441 15.1645 19.2699 15.16 19.295 15.1507C19.4075 15.1085 19.4645 14.9832 19.4223 14.8706C19.147 14.1367 18.6522 13.2627 18.1646 12.4869C18.0457 11.3153 17.9126 10.5717 17.9102 10.5584C17.8888 10.4402 17.7758 10.3603 17.6574 10.3834C17.5392 10.4048 17.4609 10.518 17.4823 10.6361C17.4841 10.6456 17.5526 11.0286 17.6345 11.6733C17.4674 11.4254 17.3121 11.2017 17.1819 11.0176L17.1925 11.0209C17.3071 11.0591 17.4296 10.9974 17.4677 10.8835C17.5057 10.7694 17.4441 10.6462 17.3302 10.6084L16.6777 10.3909C16.5872 10.3604 16.4879 10.3927 16.4325 10.47C16.4177 10.4906 16.4076 10.5132 16.4007 10.5366C16.2705 10.4404 16.1035 10.3621 15.9467 10.4277C15.8519 10.4671 15.7389 10.566 15.7389 10.8147C15.7389 11.0056 15.8117 11.2121 15.889 11.4308C16.0171 11.7936 16.0972 12.0603 15.9616 12.1875C15.8867 12.2578 15.8117 12.2844 15.7387 12.2659C15.6046 12.2319 15.4719 12.0533 15.3834 11.7881C15.3796 11.7766 15.3716 11.7682 15.3661 11.7579C15.4118 11.421 15.3919 11.0151 15.2997 10.5546C15.2762 10.4367 15.1619 10.36 15.0437 10.384C14.9259 10.4076 14.8496 10.5221 14.8732 10.6399C15.0152 11.3501 14.9726 11.9295 14.7592 12.1897C14.6767 12.2904 14.5734 12.3371 14.434 12.3371C14.3899 12.3371 14.3599 12.3231 14.3299 12.2887C14.1584 12.0909 14.1591 11.4529 14.2144 11.0627C14.2232 11.0006 14.2046 10.9372 14.1632 10.8896C14.1219 10.8421 14.0621 10.8147 13.9991 10.8147C13.6249 10.8147 13.483 11.2403 13.3577 11.6158C13.3029 11.7809 13.2005 12.0877 13.1291 12.1196C12.9975 12.1196 12.9124 11.7331 12.9116 11.4669C12.9112 11.3469 12.8141 11.2499 12.6941 11.2499C12.6941 11.2499 12.6939 11.2499 12.6937 11.2499C12.5737 11.2499 12.4766 11.3471 12.4766 11.4671C12.4766 11.9687 12.6474 12.5545 13.1291 12.5545C13.4877 12.5545 13.6329 12.1637 13.7546 11.8006C13.7757 12.0894 13.8409 12.3886 14.0012 12.5734C14.1139 12.7034 14.2635 12.772 14.434 12.772C14.7025 12.772 14.9312 12.666 15.0956 12.4655C15.1254 12.4292 15.151 12.3875 15.1763 12.3455C15.3026 12.525 15.4575 12.6434 15.6321 12.6875C15.6832 12.7004 15.7347 12.707 15.7857 12.707C15.9536 12.707 16.1176 12.6377 16.2593 12.5045C16.2887 12.4768 16.3095 12.4466 16.3319 12.4168C16.3851 12.432 16.4391 12.441 16.4926 12.441C16.6688 12.441 16.8384 12.37 16.9437 12.3025C17.0444 12.2379 17.0735 12.1045 17.0096 12.0034C16.9455 11.9025 16.8115 11.8724 16.7101 11.9357C16.7082 11.9365 16.563 12.0201 16.4639 12.0004C16.4642 11.762 16.3779 11.5088 16.2992 11.2857C16.2544 11.1587 16.2084 11.0286 16.1867 10.9222C16.2046 10.9373 16.2221 10.953 16.2378 10.9682C16.3226 11.0532 16.4603 11.0532 16.5452 10.9682C16.5593 10.9542 16.5674 10.9371 16.5768 10.9207C16.8022 11.2312 17.2659 11.8839 17.7429 12.6362C17.8339 13.5609 17.9138 14.7404 17.9138 16.0342C17.9138 16.1544 18.0112 16.2517 18.1313 16.2517C18.2514 16.2519 18.3488 16.1547 18.3488 16.0345Z" fill="#F5F5F5"/>
<path d="M18.5662 11.2497C18.5662 11.3699 18.6636 11.4672 18.7837 11.4672C18.9038 11.4672 19.0012 11.3699 19.0012 11.2497C19.0012 10.9937 18.8009 10.5802 18.7607 10.4999C18.707 10.3927 18.5765 10.3494 18.4689 10.4027C18.3615 10.4564 18.3179 10.5871 18.3717 10.6945C18.4501 10.8514 18.5662 11.1362 18.5662 11.2497Z" fill="#F5F5F5"/>
<path d="M17.5768 16.0578C17.4702 16.0034 17.3392 16.0466 17.2849 16.1536C17.2615 16.1993 17.2253 16.2501 17.1947 16.2828C17.1851 16.1963 17.2081 16.0236 17.252 15.8805C17.2812 15.7849 17.2416 15.6817 17.156 15.6303C17.0707 15.5788 16.9608 15.5921 16.8902 15.6628L16.4553 16.0978C16.3704 16.1827 16.3704 16.3203 16.4553 16.4053C16.5402 16.4902 16.6779 16.4902 16.7628 16.4053L16.7739 16.3942C16.7927 16.4815 16.8287 16.5611 16.8903 16.6228C16.9719 16.7043 17.0704 16.7474 17.1729 16.7474C17.1927 16.7474 17.2127 16.7457 17.2327 16.7426C17.4791 16.7026 17.6324 16.431 17.6736 16.3488C17.727 16.2415 17.6837 16.1118 17.5768 16.0578Z" fill="#F5F5F5"/>
<path d="M17.4926 14.3081H15.9598C15.9734 14.254 15.9874 14.2023 16.0017 14.1533C16.6129 14.0262 16.9762 13.8289 17.083 13.5657C17.12 13.4744 17.1585 13.2898 17.0012 13.0776C16.8594 12.8864 16.6593 12.8007 16.4514 12.8431C16.1424 12.9058 15.867 13.2387 15.6694 13.7719C15.0555 13.877 14.6625 14.0974 14.4137 14.3148C14.3254 13.4236 13.9795 12.8941 13.9626 12.8689C13.8959 12.7689 13.7608 12.7419 13.661 12.8086C13.5611 12.8753 13.5342 13.0101 13.6007 13.1101C13.6046 13.1161 13.9991 13.7194 13.9991 14.7294C13.9991 15.7221 13.2075 16.4692 12.6942 16.4692C12.45 16.4692 12.3431 16.179 12.2962 15.9335C12.7988 15.5812 13.2423 15.1736 13.3402 14.782C13.4728 14.2521 13.306 13.8615 13.1956 13.6031C13.1904 13.5912 13.185 13.5784 13.1795 13.5652C13.1842 13.5695 13.1886 13.5739 13.193 13.5782C13.2778 13.6631 13.4155 13.6631 13.5005 13.5782C13.5854 13.4932 13.5854 13.3556 13.5005 13.2707C13.3734 13.1434 13.1265 12.9436 12.902 13.0375C12.8072 13.0768 12.6942 13.1757 12.6942 13.4244C12.6942 13.5368 12.7412 13.6466 12.7955 13.774C12.8935 14.0032 13.0153 14.2884 12.9182 14.6766C12.8607 14.9064 12.5786 15.1851 12.2063 15.4618C12.1664 15.4141 12.1087 15.382 12.0417 15.382H12.0414C11.9214 15.3822 11.8242 15.4792 11.8242 15.5992C11.8242 15.6384 11.8259 15.6802 11.8284 15.7231C11.363 16.0246 10.8363 16.3036 10.4292 16.4887C10.3199 16.5384 10.2716 16.6673 10.3213 16.7767C10.3577 16.8567 10.4367 16.9041 10.5194 16.9041C10.5495 16.9041 10.5801 16.898 10.6092 16.8846C10.7315 16.8291 11.3119 16.5586 11.9082 16.1891C12.018 16.5619 12.2507 16.9042 12.6942 16.9042C13.2159 16.9042 13.8078 16.4776 14.1494 15.8407C14.1906 15.9135 14.238 15.9832 14.2945 16.0483C14.842 16.6796 15.9112 16.6867 15.9565 16.6867C16.0736 16.6867 16.1696 16.5941 16.1739 16.4771C16.178 16.3601 16.0888 16.2607 15.972 16.2524C15.9703 16.2522 15.797 16.2331 15.7006 16.1206C15.6424 16.0526 15.6192 15.9591 15.6294 15.8349C15.6517 15.5669 16.5162 15.3666 17.2782 15.3547C17.369 15.3532 17.4494 15.2957 17.4798 15.2101L17.6973 14.5985C17.7209 14.532 17.7108 14.4579 17.67 14.4004C17.6297 14.3425 17.5632 14.3081 17.4926 14.3081ZM16.538 13.2696C16.5421 13.2687 16.5476 13.2674 16.5545 13.2674C16.5754 13.2674 16.6082 13.2776 16.6519 13.3367C16.6602 13.3477 16.6867 13.3855 16.68 13.4021C16.655 13.4637 16.5049 13.5654 16.192 13.6576C16.3296 13.3891 16.4642 13.2844 16.538 13.2696ZM15.2245 16.1285C15.0036 16.0567 14.7784 15.9429 14.6225 15.7626C14.4512 15.5644 14.388 15.3138 14.4295 14.9967C14.4357 14.98 14.45 14.9472 14.4749 14.9045C14.7811 14.8764 15.5993 14.9971 15.656 15.2314C15.4036 15.3602 15.2177 15.5414 15.1962 15.7989C15.1854 15.9281 15.1986 16.0374 15.2245 16.1285Z" fill="#F5F5F5"/>
<path d="M19.8597 11.1807L19.6422 10.5282C19.6071 10.4233 19.4983 10.3607 19.3903 10.3844C19.2819 10.4076 19.2083 10.5084 19.2194 10.6187C19.3695 12.1194 19.6533 15.0461 19.6533 15.3817C19.6533 15.6831 19.1173 16.2765 18.2512 16.7096C18.1437 16.7633 18.1001 16.8939 18.1539 17.0014C18.192 17.0776 18.2688 17.1216 18.3487 17.1216C18.3813 17.1216 18.4145 17.1141 18.4457 17.0986C19.2369 16.703 20.0883 15.997 20.0883 15.3817C20.0883 15.0604 19.8661 12.7483 19.7388 11.4496C19.8418 11.4056 19.8957 11.2891 19.8597 11.1807Z" fill="#F5F5F5"/>
<path d="M21.6751 13.1431C21.7169 13.185 21.7726 13.2069 21.8289 13.2069C21.8657 13.2069 21.9027 13.1976 21.9364 13.1784C22.0214 13.1299 22.0637 13.0306 22.0396 12.9356C22.0007 12.7828 21.9877 12.5916 22.0083 12.5134C22.1172 12.5168 22.2184 12.4393 22.2344 12.3269C22.2513 12.208 22.1687 12.0978 22.0499 12.0808C21.9061 12.0613 21.7798 12.1036 21.6916 12.2016C21.6345 12.2654 21.6005 12.3471 21.5821 12.4351L21.3302 12.1832C21.2453 12.0983 21.1076 12.0983 21.0227 12.1832C20.9378 12.2681 20.9378 12.4058 21.0227 12.4907L21.6751 13.1431Z" fill="#F5F5F5"/>
<path d="M22.1642 13.3702L21.3486 13.9547C21.2511 14.0245 21.2285 14.1605 21.2985 14.2582C21.341 14.3174 21.4078 14.3489 21.4756 14.3489C21.5195 14.3489 21.5637 14.3357 21.6021 14.3081L22.4176 13.7236C22.5152 13.6537 22.5378 13.5178 22.4678 13.4201C22.3976 13.3224 22.2615 13.2996 22.1642 13.3702Z" fill="#F5F5F5"/>
<path d="M22.0917 14.188C22.0233 14.2761 22.0331 14.4002 22.1108 14.4765C22.1201 14.4922 22.1625 14.5754 22.1548 14.7895C22.1506 14.9097 22.2444 15.0104 22.3644 15.0146C22.3671 15.0148 22.3698 15.0148 22.3723 15.0148C22.4889 15.0148 22.5854 14.9224 22.5896 14.8052C22.6054 14.3613 22.4601 14.1991 22.3969 14.15C22.3023 14.0759 22.1654 14.0933 22.0917 14.188Z" fill="#F5F5F5"/>
<path d="M23.9902 15.7896C24.1104 15.7896 24.2077 15.6924 24.2077 15.5721C24.2077 15.2513 24.1912 14.893 24.1643 14.5203C24.38 14.8737 24.5591 15.1995 24.674 15.4674C24.7092 15.5501 24.7895 15.5993 24.8739 15.5993C24.9025 15.5993 24.9316 15.5938 24.9595 15.5817C25.0699 15.5343 25.121 15.4064 25.0736 15.2963C24.8745 14.8316 24.5024 14.2161 24.0786 13.5806C23.9932 12.7824 23.8818 12.0002 23.7952 11.4391C23.8412 11.4438 23.8891 11.4326 23.931 11.4053C23.9997 11.3613 24.0319 11.2849 24.0272 11.2088C24.0328 11.2302 24.0388 11.2516 24.0513 11.2713C24.0528 11.2734 24.1926 11.5043 24.1306 11.8038C24.1062 11.9213 24.1819 12.0364 24.2995 12.0608C24.3144 12.0637 24.3292 12.0653 24.3437 12.0653C24.4447 12.0653 24.5352 11.9945 24.5566 11.8918C24.6547 11.4166 24.4279 11.0531 24.4183 11.0378C24.3537 10.9366 24.2192 10.907 24.1179 10.9711C24.049 11.015 24.0164 11.0915 24.0208 11.1678C24.0152 11.1463 24.009 11.1246 23.9963 11.105L23.6292 10.5341C23.5732 10.447 23.4634 10.4117 23.3672 10.4491C23.2706 10.487 23.2141 10.5874 23.2321 10.6893C23.2351 10.7065 23.4013 11.6608 23.5486 12.8111C23.3819 12.5757 23.2152 12.3455 23.0535 12.1258C23.0273 11.7967 23.0009 11.4925 22.9781 11.241C22.9901 11.2374 23.0019 11.2327 23.0134 11.227C23.1209 11.1732 23.1645 11.0426 23.1107 10.9351L22.8932 10.5002C22.8463 10.4063 22.7391 10.3596 22.6383 10.3885C22.5375 10.4178 22.4718 10.5146 22.4823 10.6191C22.5082 10.8786 22.5352 11.166 22.5617 11.4678C22.4241 11.2865 22.2969 11.1205 22.1879 10.9799C22.2092 10.9616 22.2273 10.939 22.2407 10.9121C22.2944 10.8047 22.2509 10.6741 22.1434 10.6203L21.7085 10.4028C21.6173 10.3574 21.5065 10.3812 21.4421 10.4606C21.3779 10.5401 21.3776 10.6535 21.4414 10.7333C21.4532 10.748 21.9887 11.4192 22.6293 12.2856C22.7404 13.7225 22.8144 15.2173 22.7099 15.5307C22.6908 15.588 22.6574 15.6556 22.6261 15.6579C22.4946 15.6762 22.1809 15.3823 22.0233 15.0673C21.9325 14.8859 21.8019 14.8671 21.732 14.8702C21.4983 14.8846 21.4071 15.1418 21.2413 15.6087C21.1225 15.9432 20.9749 16.3591 20.8091 16.5292C20.7193 16.4194 20.6032 16.0513 20.5387 15.6729C20.5689 15.7566 20.6473 15.8171 20.7414 15.8171C20.8615 15.8171 20.9589 15.7198 20.9589 15.5996C20.9589 15.2752 20.7321 12.8051 20.6054 11.4514C20.7112 11.4089 20.7668 11.2907 20.7303 11.1811L20.5128 10.5286C20.4778 10.4237 20.3705 10.3618 20.2614 10.3846C20.1532 10.4075 20.0794 10.508 20.0899 10.618C20.2377 12.1695 20.5148 15.1663 20.5234 15.5799C20.5229 15.5761 20.5221 15.5725 20.5216 15.5688C20.5048 15.4498 20.3938 15.3683 20.2756 15.3842C20.1566 15.4014 20.0741 15.5114 20.0911 15.6303C20.1546 16.0749 20.3169 16.8392 20.6906 16.9637C20.7201 16.9737 20.7599 16.9826 20.8065 16.9826C20.8923 16.9826 21.0011 16.9522 21.1126 16.8407C21.3494 16.6039 21.5098 16.1523 21.6512 15.7541C21.6831 15.6641 21.721 15.5574 21.7566 15.4661C21.9561 15.7575 22.3043 16.1203 22.6569 16.0919C22.7809 16.083 23.0065 16.0163 23.1225 15.6684C23.2381 15.3214 23.1924 14.1115 23.1145 12.9531C23.2978 13.2099 23.4811 13.4729 23.6561 13.7326C23.724 14.3839 23.7725 15.0364 23.7725 15.5724C23.7728 15.6923 23.8702 15.7896 23.9902 15.7896Z" fill="#F5F5F5"/>
<path d="M25.6405 14.6455C25.4864 13.4978 25.2718 12.1682 25.1359 11.3522C25.1973 11.3673 25.2641 11.355 25.3181 11.3135C25.4136 11.2407 25.4319 11.1041 25.359 11.0088L24.9648 10.4922C24.904 10.4128 24.7967 10.3848 24.7049 10.4249C24.613 10.465 24.5605 10.5628 24.5776 10.6615C24.5816 10.6838 24.9694 12.9164 25.2093 14.7033C25.3009 15.3861 25.1671 15.9963 24.8512 16.3353C24.6481 16.553 24.3791 16.6515 24.0534 16.6326C23.9339 16.6262 23.8302 16.7162 23.8227 16.836C23.8152 16.9558 23.9061 17.0591 24.0261 17.0667C24.0628 17.069 24.099 17.07 24.1349 17.07C24.545 17.07 24.9009 16.9197 25.1693 16.6317C25.5793 16.1922 25.751 15.4681 25.6405 14.6455Z" fill="#F5F5F5"/>
<path d="M23.2473 16.0794C23.1674 16.1662 23.1735 16.303 23.2581 16.3851C23.2699 16.3965 23.284 16.4191 23.2841 16.4301C23.2842 16.4362 23.2754 16.4546 23.2512 16.4787C23.1663 16.5637 23.1663 16.7013 23.2512 16.7862C23.2937 16.8287 23.3493 16.85 23.405 16.85C23.4606 16.85 23.5163 16.8287 23.5588 16.7862C23.6968 16.6484 23.7221 16.5084 23.7189 16.4152C23.7123 16.2145 23.5756 16.0849 23.5483 16.0609C23.4594 15.9836 23.3272 15.9929 23.2473 16.0794Z" fill="#F5F5F5"/>
<path d="M22.4812 20.8486H22.2637H20.9588V20.6311C20.9588 20.5109 20.8614 20.4136 20.7413 20.4136C20.6212 20.4136 20.5238 20.5108 20.5238 20.6311V20.8486H8.99707C9.43201 21.2835 10.3019 21.5011 10.9544 21.5011C11.4224 21.5011 17.2594 21.5011 20.5238 21.5011V21.936C20.5238 22.0562 20.6212 22.1535 20.7413 22.1535H22.4812C22.841 22.1535 23.1337 21.8608 23.1337 21.501C23.1337 21.1412 22.841 20.8486 22.4812 20.8486ZM22.4812 21.7185H20.9587V21.501C22.0069 21.501 22.6986 21.501 22.6986 21.501L22.6595 21.3839C22.6822 21.4182 22.6986 21.4569 22.6986 21.501C22.6986 21.6211 22.601 21.7185 22.4812 21.7185Z" fill="#F5F5F5"/>
</g>
<defs>
<clipPath id="clip0_357_4686">
<rect width="32" height="32" fill="white"/>
</clipPath>
</defs>
</svg>
