<svg width="32" height="32" viewBox="0 0 32 32" fill="none" xmlns="http://www.w3.org/2000/svg">
<path d="M31.4482 26.4826H0.551749C0.247062 26.4826 0 26.2356 0 25.9309V6.06884C0 5.76415 0.247062 5.51709 0.551749 5.51709H31.4483C31.7529 5.51709 32 5.76415 32 6.06884V25.9309C31.9999 26.2356 31.7529 26.4826 31.4482 26.4826Z" fill="#F5F5F5"/>
<path d="M31.9999 7.1299H0V6.06884C0 5.76415 0.247062 5.51709 0.551749 5.51709H31.4483C31.7529 5.51709 32 5.76415 32 6.06884L31.9999 7.1299Z" fill="#FF4B55"/>
<path d="M31.9999 11.9678H0V13.5805H31.9999V11.9678Z" fill="#FF4B55"/>
<path d="M31.9999 8.74219H0V10.3549H31.9999V8.74219Z" fill="#FF4B55"/>
<path d="M31.9999 16.8062H0.551749C0.247062 16.8062 0 16.5591 0 16.2544V15.1934H31.9999V16.8062Z" fill="#FF4B55"/>
<path d="M31.9999 21.645H0V23.2578H31.9999V21.645Z" fill="#FF4B55"/>
<path d="M31.4482 26.4824H0.551749C0.247062 26.4824 0 26.2353 0 25.9306V24.8696H31.9999V25.9307C31.9999 26.2354 31.7529 26.4824 31.4482 26.4824Z" fill="#FF4B55"/>
<path d="M31.9999 18.4194H0V20.0322H31.9999V18.4194Z" fill="#FF4B55"/>
<path d="M14.3448 5.51709H0.551749C0.247062 5.51709 0 5.76409 0 6.06878V16.2544C0 16.5591 0.247062 16.8061 0.551749 16.8061H14.3448C14.6495 16.8061 14.8966 16.5591 14.8966 16.2544V6.06878C14.8965 5.76409 14.6495 5.51709 14.3448 5.51709Z" fill="#41479B"/>
<path d="M1.54915 6.78362L1.67127 7.14987L2.05733 7.1528C2.10733 7.15324 2.12802 7.21699 2.08783 7.24668L1.77727 7.47605L1.89377 7.84411C1.9089 7.89174 1.85458 7.93124 1.8139 7.90211L1.49983 7.67768L1.18577 7.90218C1.14508 7.93124 1.0909 7.8918 1.1059 7.84418L1.2224 7.47612L0.911835 7.24674C0.871647 7.21699 0.892335 7.1533 0.942335 7.15287L1.3284 7.14993L1.45052 6.78368C1.46627 6.73618 1.53327 6.73618 1.54915 6.78362Z" fill="#F5F5F5"/>
<path d="M1.54915 8.69959L1.67127 9.06584L2.05733 9.06877C2.10733 9.06921 2.12802 9.13296 2.08783 9.16265L1.77727 9.39202L1.89377 9.76008C1.9089 9.80771 1.85458 9.84721 1.8139 9.81808L1.49983 9.59365L1.18577 9.81815C1.14508 9.84721 1.0909 9.80777 1.1059 9.76015L1.2224 9.39209L0.911835 9.16271C0.871647 9.13296 0.892335 9.06927 0.942335 9.06884L1.3284 9.0659L1.45052 8.69965C1.46627 8.65221 1.53327 8.65221 1.54915 8.69959Z" fill="#F5F5F5"/>
<path d="M1.54915 10.6156L1.67127 10.9819L2.05733 10.9848C2.10733 10.9852 2.12802 11.049 2.08783 11.0787L1.77727 11.308L1.89377 11.6761C1.9089 11.7237 1.85458 11.7632 1.8139 11.7341L1.49983 11.5097L1.18577 11.7342C1.14508 11.7632 1.0909 11.7238 1.1059 11.6762L1.2224 11.3081L0.911835 11.0787C0.871647 11.049 0.892335 10.9853 0.942335 10.9849L1.3284 10.9819L1.45052 10.6157C1.46627 10.5682 1.53327 10.5682 1.54915 10.6156Z" fill="#F5F5F5"/>
<path d="M1.54915 12.5312L1.67127 12.8974L2.05733 12.9004C2.10733 12.9008 2.12802 12.9646 2.08783 12.9942L1.77727 13.2236L1.89377 13.5917C1.9089 13.6393 1.85458 13.6788 1.8139 13.6497L1.49983 13.4252L1.18577 13.6497C1.14508 13.6788 1.0909 13.6394 1.1059 13.5917L1.2224 13.2237L0.911835 12.9943C0.871647 12.9645 0.892335 12.9009 0.942335 12.9004L1.3284 12.8975L1.45052 12.5312C1.46627 12.4837 1.53327 12.4837 1.54915 12.5312Z" fill="#F5F5F5"/>
<path d="M1.54915 14.4472L1.67127 14.8135L2.05733 14.8164C2.10733 14.8169 2.12802 14.8806 2.08783 14.9103L1.77727 15.1397L1.89377 15.5077C1.9089 15.5554 1.85458 15.5949 1.8139 15.5657L1.49983 15.3413L1.18577 15.5658C1.14508 15.5949 1.0909 15.5554 1.1059 15.5078L1.2224 15.1397L0.911835 14.9104C0.871647 14.8806 0.892335 14.8169 0.942335 14.8165L1.3284 14.8136L1.45052 14.4473C1.46627 14.3997 1.53327 14.3997 1.54915 14.4472Z" fill="#F5F5F5"/>
<path d="M3.03645 7.72303L3.15858 8.08928L3.54464 8.09222C3.59464 8.09266 3.61532 8.15641 3.57514 8.18609L3.26458 8.41547L3.38107 8.78353C3.3962 8.83115 3.34189 8.87065 3.3012 8.84153L2.98714 8.61703L2.67308 8.84153C2.63239 8.87059 2.5782 8.83115 2.5932 8.78353L2.7097 8.41547L2.39914 8.18609C2.35895 8.15634 2.37964 8.09266 2.42964 8.09222L2.8157 8.08928L2.93783 7.72303C2.95351 7.67566 3.02064 7.67566 3.03645 7.72303Z" fill="#F5F5F5"/>
<path d="M3.03645 9.63861L3.15858 10.0049L3.54464 10.0078C3.59464 10.0082 3.61532 10.072 3.57514 10.1017L3.26458 10.331L3.38107 10.6991C3.3962 10.7467 3.34189 10.7862 3.3012 10.7571L2.98714 10.5326L2.67308 10.7571C2.63239 10.7862 2.5782 10.7468 2.5932 10.6991L2.7097 10.331L2.39914 10.1017C2.35895 10.0719 2.37964 10.0082 2.42964 10.0078L2.8157 10.0049L2.93783 9.63861C2.95351 9.59117 3.02064 9.59117 3.03645 9.63861Z" fill="#F5F5F5"/>
<path d="M3.03645 11.5546L3.15858 11.9209L3.54464 11.9238C3.59464 11.9242 3.61532 11.988 3.57514 12.0177L3.26458 12.2471L3.38107 12.6151C3.3962 12.6627 3.34189 12.7022 3.3012 12.6731L2.98714 12.4486L2.67308 12.6731C2.63239 12.7022 2.5782 12.6627 2.5932 12.6151L2.7097 12.2471L2.39914 12.0177C2.35895 11.9879 2.37964 11.9242 2.42964 11.9238L2.8157 11.9209L2.93783 11.5546C2.95351 11.5072 3.02064 11.5072 3.03645 11.5546Z" fill="#F5F5F5"/>
<path d="M3.03645 13.4706L3.15858 13.8368L3.54464 13.8398C3.59464 13.8402 3.61532 13.904 3.57514 13.9337L3.26458 14.163L3.38107 14.5311C3.3962 14.5787 3.34189 14.6182 3.3012 14.5891L2.98714 14.3646L2.67308 14.5891C2.63239 14.6181 2.5782 14.5787 2.5932 14.5311L2.7097 14.163L2.39914 13.9337C2.35895 13.9039 2.37964 13.8402 2.42964 13.8398L2.8157 13.8368L2.93783 13.4706C2.95351 13.4232 3.02064 13.4232 3.03645 13.4706Z" fill="#F5F5F5"/>
<path d="M4.52376 6.78362L4.64588 7.14987L5.03194 7.15281C5.08194 7.15325 5.10263 7.217 5.06244 7.24669L4.75188 7.47606L4.86838 7.84412C4.8835 7.89175 4.82919 7.93125 4.78851 7.90212L4.47444 7.67762L4.16038 7.90212C4.11969 7.93118 4.06551 7.89175 4.08051 7.84412L4.19701 7.47606L3.88644 7.24669C3.84626 7.21694 3.86694 7.15325 3.91694 7.15281L4.30301 7.14987L4.42513 6.78362C4.44088 6.73619 4.50794 6.73619 4.52376 6.78362Z" fill="#F5F5F5"/>
<path d="M4.52376 8.69959L4.64588 9.06584L5.03194 9.06878C5.08194 9.06922 5.10263 9.13297 5.06244 9.16265L4.75188 9.39203L4.86838 9.76009C4.8835 9.80772 4.82919 9.84722 4.78851 9.81809L4.47444 9.59359L4.16038 9.81809C4.11969 9.84715 4.06551 9.80772 4.08051 9.76009L4.19701 9.39203L3.88644 9.16265C3.84626 9.1329 3.86694 9.06922 3.91694 9.06878L4.30301 9.06584L4.42513 8.69959C4.44088 8.65222 4.50794 8.65222 4.52376 8.69959Z" fill="#F5F5F5"/>
<path d="M4.52376 10.6156L4.64588 10.9819L5.03194 10.9848C5.08194 10.9852 5.10263 11.049 5.06244 11.0787L4.75188 11.308L4.86838 11.6761C4.8835 11.7237 4.82919 11.7632 4.78851 11.7341L4.47444 11.5096L4.16038 11.7341C4.11969 11.7632 4.06551 11.7237 4.08051 11.6761L4.19701 11.308L3.88644 11.0787C3.84626 11.0489 3.86694 10.9852 3.91694 10.9848L4.30301 10.9819L4.42513 10.6156C4.44088 10.5682 4.50794 10.5682 4.52376 10.6156Z" fill="#F5F5F5"/>
<path d="M4.52376 12.5312L4.64588 12.8974L5.03194 12.9004C5.08194 12.9008 5.10263 12.9646 5.06244 12.9942L4.75188 13.2236L4.86838 13.5917C4.8835 13.6393 4.82919 13.6788 4.78851 13.6497L4.47444 13.4252L4.16038 13.6497C4.11969 13.6787 4.06551 13.6393 4.08051 13.5917L4.19701 13.2236L3.88644 12.9942C3.84626 12.9645 3.86694 12.9008 3.91694 12.9004L4.30301 12.8974L4.42513 12.5312C4.44088 12.4837 4.50794 12.4837 4.52376 12.5312Z" fill="#F5F5F5"/>
<path d="M4.52376 14.4472L4.64588 14.8135L5.03194 14.8164C5.08194 14.8169 5.10263 14.8806 5.06244 14.9103L4.75188 15.1397L4.86838 15.5077C4.8835 15.5554 4.82919 15.5949 4.78851 15.5657L4.47444 15.3412L4.16038 15.5657C4.11969 15.5948 4.06551 15.5554 4.08051 15.5077L4.19701 15.1397L3.88644 14.9103C3.84626 14.8806 3.86694 14.8169 3.91694 14.8164L4.30301 14.8135L4.42513 14.4472C4.44088 14.3997 4.50794 14.3997 4.52376 14.4472Z" fill="#F5F5F5"/>
<path d="M6.01008 7.72303L6.13221 8.08928L6.51827 8.09222C6.56827 8.09266 6.58896 8.15641 6.54877 8.18609L6.23821 8.41547L6.35471 8.78353C6.36983 8.83115 6.31552 8.87065 6.27483 8.84153L5.96077 8.61703L5.64671 8.84153C5.60602 8.87059 5.55183 8.83115 5.56683 8.78353L5.68333 8.41547L5.37277 8.18609C5.33258 8.15634 5.35327 8.09266 5.40327 8.09222L5.78933 8.08928L5.91146 7.72303C5.92715 7.67566 5.99427 7.67566 6.01008 7.72303Z" fill="#F5F5F5"/>
<path d="M6.01008 9.63861L6.13221 10.0049L6.51827 10.0078C6.56827 10.0082 6.58896 10.072 6.54877 10.1017L6.23821 10.331L6.35471 10.6991C6.36983 10.7467 6.31552 10.7862 6.27483 10.7571L5.96077 10.5326L5.64671 10.7571C5.60602 10.7862 5.55183 10.7468 5.56683 10.6991L5.68333 10.331L5.37277 10.1017C5.33258 10.0719 5.35327 10.0082 5.40327 10.0078L5.78933 10.0049L5.91146 9.63861C5.92715 9.59117 5.99427 9.59117 6.01008 9.63861Z" fill="#F5F5F5"/>
<path d="M6.01008 11.5546L6.13221 11.9209L6.51827 11.9238C6.56827 11.9242 6.58896 11.988 6.54877 12.0177L6.23821 12.2471L6.35471 12.6151C6.36983 12.6627 6.31552 12.7022 6.27483 12.6731L5.96077 12.4486L5.64671 12.6731C5.60602 12.7022 5.55183 12.6627 5.56683 12.6151L5.68333 12.2471L5.37277 12.0177C5.33258 11.9879 5.35327 11.9242 5.40327 11.9238L5.78933 11.9209L5.91146 11.5546C5.92715 11.5072 5.99427 11.5072 6.01008 11.5546Z" fill="#F5F5F5"/>
<path d="M6.01008 13.4706L6.13221 13.8368L6.51827 13.8398C6.56827 13.8402 6.58896 13.904 6.54877 13.9337L6.23821 14.163L6.35471 14.5311C6.36983 14.5787 6.31552 14.6182 6.27483 14.5891L5.96077 14.3646L5.64671 14.5891C5.60602 14.6181 5.55183 14.5787 5.56683 14.5311L5.68333 14.163L5.37277 13.9337C5.33258 13.9039 5.35327 13.8402 5.40327 13.8398L5.78933 13.8368L5.91146 13.4706C5.92715 13.4232 5.99427 13.4232 6.01008 13.4706Z" fill="#F5F5F5"/>
<path d="M7.49745 6.78362L7.61958 7.14987L8.00564 7.15281C8.05564 7.15325 8.07632 7.217 8.03614 7.24669L7.72557 7.47606L7.84207 7.84412C7.8572 7.89175 7.80289 7.93125 7.7622 7.90212L7.44808 7.67762L7.13401 7.90212C7.09333 7.93118 7.03914 7.89175 7.05414 7.84412L7.17064 7.47606L6.86008 7.24669C6.81989 7.21694 6.84058 7.15325 6.89058 7.15281L7.27664 7.14987L7.39876 6.78362C7.41458 6.73619 7.48164 6.73619 7.49745 6.78362Z" fill="#F5F5F5"/>
<path d="M7.49745 8.69959L7.61958 9.06584L8.00564 9.06878C8.05564 9.06922 8.07632 9.13297 8.03614 9.16265L7.72557 9.39203L7.84207 9.76009C7.8572 9.80772 7.80289 9.84722 7.7622 9.81809L7.44808 9.59359L7.13401 9.81809C7.09333 9.84715 7.03914 9.80772 7.05414 9.76009L7.17064 9.39203L6.86008 9.16265C6.81989 9.1329 6.84058 9.06922 6.89058 9.06878L7.27664 9.06584L7.39876 8.69959C7.41458 8.65222 7.48164 8.65222 7.49745 8.69959Z" fill="#F5F5F5"/>
<path d="M7.49745 10.6156L7.61958 10.9819L8.00564 10.9848C8.05564 10.9852 8.07632 11.049 8.03614 11.0787L7.72557 11.308L7.84207 11.6761C7.8572 11.7237 7.80289 11.7632 7.7622 11.7341L7.44808 11.5096L7.13401 11.7341C7.09333 11.7632 7.03914 11.7237 7.05414 11.6761L7.17064 11.308L6.86008 11.0787C6.81989 11.0489 6.84058 10.9852 6.89058 10.9848L7.27664 10.9819L7.39876 10.6156C7.41458 10.5682 7.48164 10.5682 7.49745 10.6156Z" fill="#F5F5F5"/>
<path d="M7.49745 12.5312L7.61958 12.8974L8.00564 12.9004C8.05564 12.9008 8.07632 12.9646 8.03614 12.9942L7.72557 13.2236L7.84207 13.5917C7.8572 13.6393 7.80289 13.6788 7.7622 13.6497L7.44808 13.4252L7.13401 13.6497C7.09333 13.6787 7.03914 13.6393 7.05414 13.5917L7.17064 13.2236L6.86008 12.9942C6.81989 12.9645 6.84058 12.9008 6.89058 12.9004L7.27664 12.8974L7.39876 12.5312C7.41458 12.4837 7.48164 12.4837 7.49745 12.5312Z" fill="#F5F5F5"/>
<path d="M7.49745 14.4472L7.61958 14.8135L8.00564 14.8164C8.05564 14.8169 8.07632 14.8806 8.03614 14.9103L7.72557 15.1397L7.84207 15.5077C7.8572 15.5554 7.80289 15.5949 7.7622 15.5657L7.44808 15.3412L7.13401 15.5657C7.09333 15.5948 7.03914 15.5554 7.05414 15.5077L7.17064 15.1397L6.86008 14.9103C6.81989 14.8806 6.84058 14.8169 6.89058 14.8164L7.27664 14.8135L7.39876 14.4472C7.41458 14.3997 7.48164 14.3997 7.49745 14.4472Z" fill="#F5F5F5"/>
<path d="M8.98469 7.72303L9.10682 8.08928L9.49288 8.09222C9.54288 8.09266 9.56357 8.15641 9.52338 8.18609L9.21282 8.41547L9.32932 8.78353C9.34444 8.83115 9.29013 8.87065 9.24944 8.84153L8.93538 8.61703L8.62132 8.84153C8.58063 8.87059 8.52644 8.83115 8.54144 8.78353L8.65794 8.41547L8.34738 8.18609C8.30719 8.15634 8.32788 8.09266 8.37788 8.09222L8.76394 8.08928L8.88607 7.72303C8.90188 7.67566 8.96888 7.67566 8.98469 7.72303Z" fill="#F5F5F5"/>
<path d="M8.98469 9.63861L9.10682 10.0049L9.49288 10.0078C9.54288 10.0082 9.56357 10.072 9.52338 10.1017L9.21282 10.331L9.32932 10.6991C9.34444 10.7467 9.29013 10.7862 9.24944 10.7571L8.93538 10.5326L8.62132 10.7571C8.58063 10.7862 8.52644 10.7468 8.54144 10.6991L8.65794 10.331L8.34738 10.1017C8.30719 10.0719 8.32788 10.0082 8.37788 10.0078L8.76394 10.0049L8.88607 9.63861C8.90188 9.59117 8.96888 9.59117 8.98469 9.63861Z" fill="#F5F5F5"/>
<path d="M8.98469 11.5546L9.10682 11.9209L9.49288 11.9238C9.54288 11.9242 9.56357 11.988 9.52338 12.0177L9.21282 12.2471L9.32932 12.6151C9.34444 12.6627 9.29013 12.7022 9.24944 12.6731L8.93538 12.4486L8.62132 12.6731C8.58063 12.7022 8.52644 12.6627 8.54144 12.6151L8.65794 12.2471L8.34738 12.0177C8.30719 11.9879 8.32788 11.9242 8.37788 11.9238L8.76394 11.9209L8.88607 11.5546C8.90188 11.5072 8.96888 11.5072 8.98469 11.5546Z" fill="#F5F5F5"/>
<path d="M8.98469 13.4706L9.10682 13.8368L9.49288 13.8398C9.54288 13.8402 9.56357 13.904 9.52338 13.9337L9.21282 14.163L9.32932 14.5311C9.34444 14.5787 9.29013 14.6182 9.24944 14.5891L8.93538 14.3646L8.62132 14.5891C8.58063 14.6181 8.52644 14.5787 8.54144 14.5311L8.65794 14.163L8.34738 13.9337C8.30719 13.9039 8.32788 13.8402 8.37788 13.8398L8.76394 13.8368L8.88607 13.4706C8.90188 13.4232 8.96888 13.4232 8.98469 13.4706Z" fill="#F5F5F5"/>
<path d="M10.472 6.78362L10.5941 7.14987L10.9802 7.15281C11.0302 7.15325 11.0509 7.217 11.0107 7.24669L10.7001 7.47606L10.8166 7.84412C10.8317 7.89175 10.7774 7.93125 10.7367 7.90212L10.4227 7.67762L10.1086 7.90212C10.0679 7.93118 10.0137 7.89175 10.0287 7.84412L10.1452 7.47606L9.83469 7.24669C9.7945 7.21694 9.81519 7.15325 9.86519 7.15281L10.2512 7.14987L10.3734 6.78362C10.3891 6.73619 10.4562 6.73619 10.472 6.78362Z" fill="#F5F5F5"/>
<path d="M10.472 8.69959L10.5941 9.06584L10.9802 9.06878C11.0302 9.06922 11.0509 9.13297 11.0107 9.16265L10.7001 9.39203L10.8166 9.76009C10.8317 9.80772 10.7774 9.84722 10.7367 9.81809L10.4227 9.59359L10.1086 9.81809C10.0679 9.84715 10.0137 9.80772 10.0287 9.76009L10.1452 9.39203L9.83469 9.16265C9.7945 9.1329 9.81519 9.06922 9.86519 9.06878L10.2512 9.06584L10.3734 8.69959C10.3891 8.65222 10.4562 8.65222 10.472 8.69959Z" fill="#F5F5F5"/>
<path d="M10.472 10.6156L10.5941 10.9819L10.9802 10.9848C11.0302 10.9852 11.0509 11.049 11.0107 11.0787L10.7001 11.308L10.8166 11.6761C10.8317 11.7237 10.7774 11.7632 10.7367 11.7341L10.4227 11.5096L10.1086 11.7341C10.0679 11.7632 10.0137 11.7237 10.0287 11.6761L10.1452 11.308L9.83469 11.0787C9.7945 11.0489 9.81519 10.9852 9.86519 10.9848L10.2512 10.9819L10.3734 10.6156C10.3891 10.5682 10.4562 10.5682 10.472 10.6156Z" fill="#F5F5F5"/>
<path d="M10.472 12.5312L10.5941 12.8974L10.9802 12.9004C11.0302 12.9008 11.0509 12.9646 11.0107 12.9942L10.7001 13.2236L10.8166 13.5917C10.8317 13.6393 10.7774 13.6788 10.7367 13.6497L10.4227 13.4252L10.1086 13.6497C10.0679 13.6787 10.0137 13.6393 10.0287 13.5917L10.1452 13.2236L9.83469 12.9942C9.7945 12.9645 9.81519 12.9008 9.86519 12.9004L10.2512 12.8974L10.3734 12.5312C10.3891 12.4837 10.4562 12.4837 10.472 12.5312Z" fill="#F5F5F5"/>
<path d="M10.472 14.4472L10.5941 14.8135L10.9802 14.8164C11.0302 14.8169 11.0509 14.8806 11.0107 14.9103L10.7001 15.1397L10.8166 15.5077C10.8317 15.5554 10.7774 15.5949 10.7367 15.5657L10.4227 15.3412L10.1086 15.5657C10.0679 15.5948 10.0137 15.5554 10.0287 15.5077L10.1452 15.1397L9.83469 14.9103C9.7945 14.8806 9.81519 14.8169 9.86519 14.8164L10.2512 14.8135L10.3734 14.4472C10.3891 14.3997 10.4562 14.3997 10.472 14.4472Z" fill="#F5F5F5"/>
<path d="M11.9583 7.72303L12.0805 8.08928L12.4665 8.09222C12.5165 8.09266 12.5372 8.15641 12.497 8.18609L12.1864 8.41547L12.3029 8.78353C12.3181 8.83115 12.2638 8.87065 12.2231 8.84153L11.909 8.61703L11.595 8.84153C11.5543 8.87059 11.5001 8.83115 11.5151 8.78353L11.6316 8.41547L11.321 8.18609C11.2808 8.15634 11.3015 8.09266 11.3515 8.09222L11.7376 8.08928L11.8597 7.72303C11.8755 7.67566 11.9426 7.67566 11.9583 7.72303Z" fill="#F5F5F5"/>
<path d="M11.9583 9.63861L12.0805 10.0049L12.4665 10.0078C12.5165 10.0082 12.5372 10.072 12.497 10.1017L12.1864 10.331L12.3029 10.6991C12.3181 10.7467 12.2638 10.7862 12.2231 10.7571L11.909 10.5326L11.595 10.7571C11.5543 10.7862 11.5001 10.7468 11.5151 10.6991L11.6316 10.331L11.321 10.1017C11.2808 10.0719 11.3015 10.0082 11.3515 10.0078L11.7376 10.0049L11.8597 9.63861C11.8755 9.59117 11.9426 9.59117 11.9583 9.63861Z" fill="#F5F5F5"/>
<path d="M11.9583 11.5546L12.0805 11.9209L12.4665 11.9238C12.5165 11.9242 12.5372 11.988 12.497 12.0177L12.1864 12.2471L12.3029 12.6151C12.3181 12.6627 12.2638 12.7022 12.2231 12.6731L11.909 12.4486L11.595 12.6731C11.5543 12.7022 11.5001 12.6627 11.5151 12.6151L11.6316 12.2471L11.321 12.0177C11.2808 11.9879 11.3015 11.9242 11.3515 11.9238L11.7376 11.9209L11.8597 11.5546C11.8755 11.5072 11.9426 11.5072 11.9583 11.5546Z" fill="#F5F5F5"/>
<path d="M11.9583 13.4706L12.0805 13.8368L12.4665 13.8398C12.5165 13.8402 12.5372 13.904 12.497 13.9337L12.1864 14.163L12.3029 14.5311C12.3181 14.5787 12.2638 14.6182 12.2231 14.5891L11.909 14.3646L11.595 14.5891C11.5543 14.6181 11.5001 14.5787 11.5151 14.5311L11.6316 14.163L11.321 13.9337C11.2808 13.9039 11.3015 13.8402 11.3515 13.8398L11.7376 13.8368L11.8597 13.4706C11.8755 13.4232 11.9426 13.4232 11.9583 13.4706Z" fill="#F5F5F5"/>
<path d="M13.4456 6.78362L13.5678 7.14987L13.9538 7.15281C14.0038 7.15325 14.0245 7.217 13.9843 7.24669L13.6738 7.47606L13.7903 7.84412C13.8054 7.89175 13.7511 7.93125 13.7104 7.90212L13.3963 7.67762L13.0823 7.90212C13.0416 7.93118 12.9874 7.89175 13.0024 7.84412L13.1189 7.47606L12.8083 7.24669C12.7681 7.21694 12.7888 7.15325 12.8388 7.15281L13.2249 7.14987L13.347 6.78362C13.3628 6.73619 13.4298 6.73619 13.4456 6.78362Z" fill="#F5F5F5"/>
<path d="M13.4456 8.69959L13.5678 9.06584L13.9538 9.06878C14.0038 9.06922 14.0245 9.13297 13.9843 9.16265L13.6738 9.39203L13.7903 9.76009C13.8054 9.80772 13.7511 9.84722 13.7104 9.81809L13.3963 9.59359L13.0823 9.81809C13.0416 9.84715 12.9874 9.80772 13.0024 9.76009L13.1189 9.39203L12.8083 9.16265C12.7681 9.1329 12.7888 9.06922 12.8388 9.06878L13.2249 9.06584L13.347 8.69959C13.3628 8.65222 13.4298 8.65222 13.4456 8.69959Z" fill="#F5F5F5"/>
<path d="M13.4456 10.6156L13.5678 10.9819L13.9538 10.9848C14.0038 10.9852 14.0245 11.049 13.9843 11.0787L13.6738 11.308L13.7903 11.6761C13.8054 11.7237 13.7511 11.7632 13.7104 11.7341L13.3963 11.5096L13.0823 11.7341C13.0416 11.7632 12.9874 11.7237 13.0024 11.6761L13.1189 11.308L12.8083 11.0787C12.7681 11.0489 12.7888 10.9852 12.8388 10.9848L13.2249 10.9819L13.347 10.6156C13.3628 10.5682 13.4298 10.5682 13.4456 10.6156Z" fill="#F5F5F5"/>
<path d="M13.4456 12.5312L13.5678 12.8974L13.9538 12.9004C14.0038 12.9008 14.0245 12.9646 13.9843 12.9942L13.6738 13.2236L13.7903 13.5917C13.8054 13.6393 13.7511 13.6788 13.7104 13.6497L13.3963 13.4252L13.0823 13.6497C13.0416 13.6787 12.9874 13.6393 13.0024 13.5917L13.1189 13.2236L12.8083 12.9942C12.7681 12.9645 12.7888 12.9008 12.8388 12.9004L13.2249 12.8974L13.347 12.5312C13.3628 12.4837 13.4298 12.4837 13.4456 12.5312Z" fill="#F5F5F5"/>
<path d="M13.4456 14.4472L13.5678 14.8135L13.9538 14.8164C14.0038 14.8169 14.0245 14.8806 13.9843 14.9103L13.6738 15.1397L13.7903 15.5077C13.8054 15.5554 13.7511 15.5949 13.7104 15.5657L13.3963 15.3412L13.0823 15.5657C13.0416 15.5948 12.9874 15.5554 13.0024 15.5077L13.1189 15.1397L12.8083 14.9103C12.7681 14.8806 12.7888 14.8169 12.8388 14.8164L13.2249 14.8135L13.347 14.4472C13.3628 14.3997 13.4298 14.3997 13.4456 14.4472Z" fill="#F5F5F5"/>
</svg>
